<svg width="375" height="120" viewBox="0 0 375 120" fill="none" xmlns="http://www.w3.org/2000/svg">
<g filter="url(#filter0_d_0_294)">
<path fill-rule="evenodd" clip-rule="evenodd" d="M375 120H0V36H143C147.418 36 150.908 39.6271 151.878 43.9376C155.493 60.0008 169.845 72 187 72C204.155 72 218.507 60.0008 222.122 43.9376C223.092 39.6271 226.582 36 231 36H375V120Z" fill="white"/>
</g>
<g filter="url(#filter1_d_0_294)">
<circle cx="187" cy="36" r="28" fill="#613EEA"/>
</g>
<rect x="175" y="32" width="24" height="14" rx="3" stroke="white"/>
<line x1="183.5" y1="32" x2="190.5" y2="32" stroke="#613EEA" stroke-linecap="round"/>
<line x1="178.5" y1="32" x2="183.5" y2="32" stroke="white" stroke-linecap="round"/>
<line x1="190.5" y1="32" x2="195.5" y2="32" stroke="white" stroke-linecap="round"/>
<path d="M187 32L187 25" stroke="white" stroke-linecap="round"/>
<path d="M185 26L186.929 24.0707C186.968 24.0317 187.032 24.0317 187.071 24.0707L189 26" stroke="white" stroke-linecap="round"/>
<circle cx="187" cy="39" r="3.5" stroke="white"/>
<circle cx="179" cy="39" r="1" fill="white"/>
<circle cx="195" cy="39" r="1" fill="white"/>
<path d="M336.354 51.1138C336.44 51.0404 336.55 51.0001 336.663 51H339.294C339.407 50.9999 339.516 51.0395 339.602 51.112C339.688 51.1845 339.746 51.2851 339.766 51.3961L340.266 54.2582C340.827 54.4234 341.359 54.6466 341.861 54.9223L344.216 53.2288C344.308 53.1624 344.421 53.131 344.534 53.1401C344.647 53.1491 344.753 53.1981 344.834 53.2783L346.694 55.1381C346.774 55.2176 346.823 55.3227 346.833 55.4348C346.842 55.5468 346.812 55.6588 346.748 55.7508L345.07 58.1412C345.342 58.6401 345.562 59.1681 345.726 59.7227L348.599 60.1925C348.711 60.2109 348.813 60.2684 348.886 60.3548C348.96 60.4412 349 60.5509 349 60.6642V63.2947C349 63.4072 348.961 63.5162 348.888 63.6025C348.816 63.6888 348.716 63.7468 348.605 63.7664L345.727 64.2708C345.564 64.826 345.345 65.355 345.073 65.8541L346.774 68.2155C346.84 68.3076 346.872 68.4202 346.863 68.5333C346.853 68.6464 346.804 68.7526 346.724 68.833L344.864 70.6946C344.785 70.7741 344.68 70.8231 344.568 70.8328C344.456 70.8426 344.344 70.8125 344.252 70.7479L341.866 69.074C341.364 69.3507 340.832 69.5752 340.273 69.7418L339.766 72.6049C339.746 72.7157 339.688 72.8161 339.602 72.8884C339.515 72.9606 339.406 73.0002 339.294 73H336.663C336.55 73 336.44 72.9598 336.354 72.8866C336.268 72.8134 336.21 72.7119 336.191 72.6002L335.718 69.7484C335.156 69.5842 334.622 69.3631 334.118 69.088L331.748 70.7469C331.655 70.8112 331.544 70.8409 331.432 70.831C331.32 70.8211 331.215 70.7722 331.136 70.6928L329.276 68.832C329.196 68.7519 329.147 68.6462 329.138 68.5335C329.129 68.4208 329.16 68.3085 329.225 68.2165L330.899 65.8747C330.621 65.3684 330.398 64.8317 330.232 64.268L327.394 63.7655C327.284 63.7457 327.183 63.6876 327.111 63.6013C327.039 63.515 327 63.4061 327 63.2937V60.6633C327 60.5502 327.04 60.4408 327.113 60.3544C327.186 60.2681 327.287 60.2104 327.399 60.1916L330.235 59.7199C330.402 59.1552 330.626 58.6188 330.904 58.1132L329.25 55.748C329.186 55.656 329.156 55.544 329.166 55.432C329.175 55.3199 329.224 55.2148 329.304 55.1353L331.165 53.2764C331.245 53.1966 331.35 53.1477 331.463 53.1385C331.576 53.1293 331.688 53.1603 331.78 53.226L334.131 54.9046C334.633 54.6311 335.167 54.4115 335.726 54.2488L336.191 51.4007C336.21 51.2889 336.267 51.1872 336.354 51.1138Z" stroke="#A6AAB4"/>
<circle cx="10" cy="10" r="9.5" transform="matrix(-1 0 0 1 272 53)" fill="white" stroke="#A6AAB4"/>
<path d="M274 63C274 61.4241 273.69 59.8637 273.087 58.4078C272.483 56.9519 271.6 55.629 270.485 54.5147C269.371 53.4004 268.048 52.5165 266.592 51.9134C265.136 51.3104 263.576 51 262 51L262 63L274 63Z" fill="white"/>
<mask id="path-15-inside-1_0_294" fill="white">
<path d="M274 61.5C274 60.1211 273.728 58.7557 273.201 57.4818C272.673 56.2079 271.9 55.0504 270.925 54.0754C269.95 53.1004 268.792 52.3269 267.518 51.7993C266.244 51.2716 264.879 51 263.5 51L263.5 61.5L274 61.5Z"/>
</mask>
<path d="M274 61.5C274 60.1211 273.728 58.7557 273.201 57.4818C272.673 56.2079 271.9 55.0504 270.925 54.0754C269.95 53.1004 268.792 52.3269 267.518 51.7993C266.244 51.2716 264.879 51 263.5 51L263.5 61.5L274 61.5Z" fill="white" stroke="#A6AAB4" stroke-width="2" mask="url(#path-15-inside-1_0_294)"/>
<path d="M102 58.2629C102 56.9235 102.888 55.7463 104.176 55.3783L118.225 51.3642C118.864 51.1817 119.5 51.6614 119.5 52.3257V70C119.5 71.6569 118.157 73 116.5 73H105C103.343 73 102 71.6569 102 70V58.2629Z" fill="white" stroke="#A6AAB4"/>
<rect x="102" y="57" width="22" height="16" rx="3" fill="white" stroke="#A6AAB4"/>
<circle cx="120.5" cy="65.5" r="1.5" fill="#A6AAB4"/>
<rect x="119" y="55.5" width="1" height="1" fill="white"/>
<path d="M29 58.5V72C29 72.5523 29.4477 73 30 73H46C46.5523 73 47 72.5523 47 72V58.5" stroke="#613EEA"/>
<path d="M49 60L38.811 51.2666C38.6301 51.1115 38.365 51.1056 38.1774 51.2524L27 60" stroke="#613EEA" stroke-linecap="round"/>
<path d="M43.5 53.5H45.5V56.9325L43.5 55.2658V53.5Z" stroke="#613EEA"/>
<path d="M35 64.5C35 64.2239 35.2239 64 35.5 64H40.5C40.7761 64 41 64.2239 41 64.5V73H35V64.5Z" stroke="#613EEA"/>
<defs>
<filter id="filter0_d_0_294" x="-14" y="18" width="403" height="112" filterUnits="userSpaceOnUse" color-interpolation-filters="sRGB">
<feFlood flood-opacity="0" result="BackgroundImageFix"/>
<feColorMatrix in="SourceAlpha" type="matrix" values="0 0 0 0 0 0 0 0 0 0 0 0 0 0 0 0 0 0 127 0" result="hardAlpha"/>
<feOffset dy="-4"/>
<feGaussianBlur stdDeviation="7"/>
<feColorMatrix type="matrix" values="0 0 0 0 0 0 0 0 0 0 0 0 0 0 0 0 0 0 0.06 0"/>
<feBlend mode="normal" in2="BackgroundImageFix" result="effect1_dropShadow_0_294"/>
<feBlend mode="normal" in="SourceGraphic" in2="effect1_dropShadow_0_294" result="shape"/>
</filter>
<filter id="filter1_d_0_294" x="147" y="0" width="80" height="80" filterUnits="userSpaceOnUse" color-interpolation-filters="sRGB">
<feFlood flood-opacity="0" result="BackgroundImageFix"/>
<feColorMatrix in="SourceAlpha" type="matrix" values="0 0 0 0 0 0 0 0 0 0 0 0 0 0 0 0 0 0 127 0" result="hardAlpha"/>
<feOffset dy="4"/>
<feGaussianBlur stdDeviation="6"/>
<feColorMatrix type="matrix" values="0 0 0 0 0.380392 0 0 0 0 0.243137 0 0 0 0 0.917647 0 0 0 0.5 0"/>
<feBlend mode="normal" in2="BackgroundImageFix" result="effect1_dropShadow_0_294"/>
<feBlend mode="normal" in="SourceGraphic" in2="effect1_dropShadow_0_294" result="shape"/>
</filter>
</defs>
</svg>
